<?xml version="1.0" standalone="no"?>
<!DOCTYPE svg PUBLIC "-//W3C//DTD SVG 20010904//EN"
 "http://www.w3.org/TR/2001/REC-SVG-20010904/DTD/svg10.dtd">
<svg version="1.0" xmlns="http://www.w3.org/2000/svg"
 width="512.000000pt" height="512.000000pt" viewBox="0 0 512.000000 512.000000"
 preserveAspectRatio="xMidYMid meet">
<metadata>
Created by potrace 1.14, written by Peter Selinger 2001-2017
</metadata>
<g transform="translate(0.000000,512.000000) scale(0.100000,-0.100000)"
fill="#000000" stroke="none">
<path d="M2378 5115 c-2 -1 -32 -6 -68 -9 -547 -55 -1077 -317 -1459 -720 -31
-33 -63 -66 -71 -75 -37 -39 -152 -194 -202 -271 -124 -192 -149 -258 -109
-294 18 -17 18 -19 -7 -82 -22 -56 -29 -64 -51 -64 -46 0 -68 -25 -95 -107
-37 -115 -70 -249 -82 -338 -3 -22 -7 -45 -9 -52 -20 -61 -30 -861 -12 -1003
87 -707 461 -1319 1042 -1705 333 -221 675 -342 1092 -385 79 -8 441 -6 478 3
11 3 43 8 70 11 105 14 211 37 310 66 39 12 90 27 115 34 144 43 375 158 545
271 531 353 899 908 1014 1530 35 187 39 267 37 680 -3 420 -8 481 -57 690
-24 104 -87 305 -100 320 -5 5 -9 15 -9 23 0 21 -133 286 -184 367 -235 373
-571 677 -961 870 -112 55 -267 119 -315 130 -8 2 -44 12 -80 23 -60 18 -127
35 -190 47 -22 5 -57 10 -190 31 -37 5 -446 14 -452 9z"/>
</g>
</svg>
